<?xml version="1.0" encoding="UTF-8" standalone="no"?>
<svg width="94px" height="84px" viewBox="0 0 94 84" version="1.1" xmlns="http://www.w3.org/2000/svg" xmlns:xlink="http://www.w3.org/1999/xlink" xmlns:sketch="http://www.bohemiancoding.com/sketch/ns">
    <!-- Generator: Sketch 3.4.4 (17249) - http://www.bohemiancoding.com/sketch -->
    <title>basket</title>
    <desc>Created with Sketch.</desc>
    <defs></defs>
    <g id="Page-1" stroke="none" stroke-width="1" fill="none" fill-rule="evenodd" sketch:type="MSPage">
        <g id="Desktop-Landscape" sketch:type="MSArtboardGroup" transform="translate(-593.000000, -724.000000)" fill="#FFFFFF">
            <path d="M685.917561,752.113261 C685.555938,751.635531 684.997905,751.355528 684.406447,751.355528 L662.850071,751.355528 L645.491835,725.106734 C644.901332,724.213714 643.71396,723.978914 642.839825,724.582174 C641.96569,725.185434 641.735855,726.398133 642.326358,727.291152 L658.240011,751.355528 L621.272307,751.355528 L637.185641,727.291152 C637.776144,726.398133 637.54631,725.185434 636.672175,724.582174 C635.798039,723.978914 634.610667,724.213389 634.020164,725.106734 L616.662247,751.355528 L595.433751,751.355528 C594.842612,751.355528 594.284579,751.635206 593.922637,752.113261 C593.561014,752.590991 593.436229,753.213113 593.585207,753.797836 L606.882821,806.037533 C607.101832,806.897382 607.861687,807.497715 608.731365,807.497715 L671.109151,807.497715 C671.97883,807.497715 672.738685,806.897382 672.957696,806.037533 L686.254991,753.797836 C686.403651,753.213438 686.279184,752.591316 685.917561,752.113261 L685.917561,752.113261 Z M674.064849,786.181668 L655.010549,786.181668 L655.010549,772.670599 L677.50409,772.670599 L674.064849,786.181668 L674.064849,786.181668 Z M651.190267,786.181668 L628.649295,786.181668 L628.649295,772.670599 L651.190267,772.670599 L651.190267,786.181668 L651.190267,786.181668 Z M651.190267,790.084157 L651.190267,803.595226 L628.649295,803.595226 L628.649295,790.084157 L651.190267,790.084157 L651.190267,790.084157 Z M602.336427,772.670599 L624.829649,772.670599 L624.829649,786.181668 L605.775349,786.181668 L602.336427,772.670599 L602.336427,772.670599 Z M628.649613,768.76811 L628.649613,755.258017 L651.190585,755.258017 L651.190585,768.76811 L628.649613,768.76811 L628.649613,768.76811 Z M617.672946,755.258017 L617.675174,755.258017 L617.677721,755.258017 L624.829331,755.258017 L624.829331,768.76811 L601.342918,768.76811 L597.903995,755.258017 L617.672946,755.258017 L617.672946,755.258017 Z M606.768858,790.084157 L624.829331,790.084157 L624.829331,803.595226 L610.208099,803.595226 L606.768858,790.084157 L606.768858,790.084157 Z M669.632099,803.595226 L655.010231,803.595226 L655.010231,790.084157 L673.07134,790.084157 L669.632099,803.595226 L669.632099,803.595226 Z M678.497281,768.76811 L655.010231,768.76811 L655.010231,755.258017 L661.834597,755.258017 L661.837143,755.258017 L661.839372,755.258017 L681.936203,755.258017 L678.497281,768.76811 L678.497281,768.76811 Z" id="basket" sketch:type="MSShapeGroup"></path>
        </g>
    </g>
</svg>